<svg width="216" height="38" viewBox="0 0 216 38" fill="none" xmlns="http://www.w3.org/2000/svg">
<g clip-path="url(#clip0_1_2)">
<rect width="216" height="38" fill="white"/>
<path d="M12.1756 31C11.4496 31 10.8886 30.813 10.4926 30.439C10.1186 30.043 9.93163 29.482 9.93163 28.756V9.979C9.93163 9.253 10.1186 8.703 10.4926 8.329C10.8886 7.933 11.4496 7.735 12.1756 7.735H18.5776C22.4716 7.735 25.4746 8.736 27.5866 10.738C29.7206 12.74 30.7876 15.611 30.7876 19.351C30.7876 21.221 30.5126 22.882 29.9626 24.334C29.4346 25.764 28.6426 26.974 27.5866 27.964C26.5526 28.954 25.2766 29.713 23.7586 30.241C22.2626 30.747 20.5356 31 18.5776 31H12.1756ZM14.1556 27.502H18.3136C19.6776 27.502 20.8546 27.337 21.8446 27.007C22.8566 26.655 23.6926 26.149 24.3526 25.489C25.0346 24.807 25.5406 23.96 25.8706 22.948C26.2006 21.914 26.3656 20.715 26.3656 19.351C26.3656 16.623 25.6946 14.588 24.3526 13.246C23.0106 11.904 20.9976 11.233 18.3136 11.233H14.1556V27.502ZM42.6253 31.33C40.7993 31.33 39.2263 30.989 37.9063 30.307C36.5863 29.625 35.5633 28.657 34.8373 27.403C34.1333 26.149 33.7813 24.664 33.7813 22.948C33.7813 21.276 34.1223 19.813 34.8043 18.559C35.5083 17.305 36.4653 16.326 37.6753 15.622C38.9073 14.896 40.3043 14.533 41.8663 14.533C43.0103 14.533 44.0333 14.72 44.9353 15.094C45.8593 15.468 46.6403 16.007 47.2783 16.711C47.9383 17.415 48.4333 18.273 48.7633 19.285C49.1153 20.275 49.2913 21.397 49.2913 22.651C49.2913 23.047 49.1483 23.355 48.8623 23.575C48.5983 23.773 48.2133 23.872 47.7073 23.872H37.1143V21.496H46.3873L45.8593 21.991C45.8593 20.979 45.7053 20.132 45.3973 19.45C45.1113 18.768 44.6823 18.251 44.1103 17.899C43.5603 17.525 42.8673 17.338 42.0313 17.338C41.1073 17.338 40.3153 17.558 39.6553 17.998C39.0173 18.416 38.5223 19.021 38.1703 19.813C37.8403 20.583 37.6753 21.507 37.6753 22.585V22.816C37.6753 24.62 38.0933 25.973 38.9293 26.875C39.7873 27.755 41.0413 28.195 42.6913 28.195C43.2633 28.195 43.9013 28.129 44.6053 27.997C45.3313 27.843 46.0133 27.59 46.6513 27.238C47.1133 26.974 47.5203 26.864 47.8723 26.908C48.2243 26.93 48.4993 27.051 48.6973 27.271C48.9173 27.491 49.0493 27.766 49.0933 28.096C49.1373 28.404 49.0713 28.723 48.8953 29.053C48.7413 29.383 48.4663 29.669 48.0703 29.911C47.3003 30.395 46.4093 30.758 45.3973 31C44.4073 31.22 43.4833 31.33 42.6253 31.33ZM58.8343 31.264C58.2843 31.264 57.8003 31.121 57.3823 30.835C56.9863 30.549 56.6563 30.109 56.3923 29.515L51.1453 17.338C50.9473 16.854 50.8703 16.403 50.9143 15.985C50.9803 15.567 51.1783 15.237 51.5083 14.995C51.8603 14.731 52.3333 14.599 52.9273 14.599C53.4333 14.599 53.8403 14.72 54.1483 14.962C54.4563 15.182 54.7313 15.611 54.9733 16.249L59.4283 27.37H58.4383L63.0253 16.216C63.2673 15.6 63.5423 15.182 63.8503 14.962C64.1803 14.72 64.6203 14.599 65.1703 14.599C65.6543 14.599 66.0393 14.731 66.3253 14.995C66.6113 15.237 66.7873 15.567 66.8533 15.985C66.9193 16.381 66.8423 16.821 66.6223 17.305L61.2763 29.515C61.0343 30.109 60.7043 30.549 60.2863 30.835C59.8903 31.121 59.4063 31.264 58.8343 31.264ZM80.9226 31.33C78.5026 31.33 76.4236 30.846 74.6856 29.878C72.9696 28.888 71.6496 27.502 70.7256 25.72C69.8016 23.916 69.3396 21.793 69.3396 19.351C69.3396 17.525 69.6036 15.886 70.1316 14.434C70.6596 12.96 71.4186 11.706 72.4086 10.672C73.3986 9.616 74.6086 8.813 76.0386 8.263C77.4906 7.691 79.1186 7.405 80.9226 7.405C82.1326 7.405 83.3206 7.559 84.4866 7.867C85.6526 8.175 86.6756 8.615 87.5556 9.187C88.0176 9.473 88.3256 9.825 88.4796 10.243C88.6336 10.639 88.6666 11.035 88.5786 11.431C88.4906 11.805 88.3036 12.124 88.0176 12.388C87.7536 12.652 87.4126 12.806 86.9946 12.85C86.5986 12.872 86.1586 12.729 85.6746 12.421C84.9926 11.981 84.2556 11.662 83.4636 11.464C82.6716 11.266 81.8686 11.167 81.0546 11.167C79.4926 11.167 78.1726 11.486 77.0946 12.124C76.0166 12.762 75.2026 13.686 74.6526 14.896C74.1026 16.106 73.8276 17.591 73.8276 19.351C73.8276 21.089 74.1026 22.574 74.6526 23.806C75.2026 25.038 76.0166 25.973 77.0946 26.611C78.1726 27.249 79.4926 27.568 81.0546 27.568C81.8906 27.568 82.7156 27.469 83.5296 27.271C84.3436 27.051 85.1136 26.721 85.8396 26.281C86.3236 25.995 86.7526 25.874 87.1266 25.918C87.5226 25.94 87.8526 26.072 88.1166 26.314C88.3806 26.556 88.5566 26.864 88.6446 27.238C88.7326 27.59 88.7106 27.964 88.5786 28.36C88.4466 28.734 88.1826 29.064 87.7866 29.35C86.9066 29.988 85.8506 30.483 84.6186 30.835C83.4086 31.165 82.1766 31.33 80.9226 31.33ZM94.2443 31.264C93.5623 31.264 93.0343 31.088 92.6603 30.736C92.3083 30.362 92.1323 29.834 92.1323 29.152V16.678C92.1323 15.996 92.3083 15.479 92.6603 15.127C93.0123 14.775 93.5073 14.599 94.1453 14.599C94.7833 14.599 95.2783 14.775 95.6303 15.127C95.9823 15.479 96.1583 15.996 96.1583 16.678V18.757H95.8283C96.1363 17.437 96.7413 16.436 97.6433 15.754C98.5453 15.072 99.7443 14.665 101.24 14.533C101.702 14.489 102.065 14.61 102.329 14.896C102.615 15.16 102.78 15.578 102.824 16.15C102.868 16.7 102.736 17.151 102.428 17.503C102.142 17.833 101.702 18.031 101.108 18.097L100.382 18.163C99.0403 18.295 98.0283 18.713 97.3463 19.417C96.6643 20.099 96.3233 21.067 96.3233 22.321V29.152C96.3233 29.834 96.1473 30.362 95.7953 30.736C95.4433 31.088 94.9263 31.264 94.2443 31.264ZM110.207 31.33C109.041 31.33 107.996 31.11 107.072 30.67C106.17 30.208 105.455 29.592 104.927 28.822C104.421 28.052 104.168 27.183 104.168 26.215C104.168 25.027 104.476 24.092 105.092 23.41C105.708 22.706 106.709 22.2 108.095 21.892C109.481 21.584 111.34 21.43 113.672 21.43H115.322V23.806H113.705C112.341 23.806 111.252 23.872 110.438 24.004C109.624 24.136 109.041 24.367 108.689 24.697C108.359 25.005 108.194 25.445 108.194 26.017C108.194 26.743 108.447 27.337 108.953 27.799C109.459 28.261 110.163 28.492 111.065 28.492C111.791 28.492 112.429 28.327 112.979 27.997C113.551 27.645 114.002 27.172 114.332 26.578C114.662 25.984 114.827 25.302 114.827 24.532V20.737C114.827 19.637 114.585 18.845 114.101 18.361C113.617 17.877 112.803 17.635 111.659 17.635C111.021 17.635 110.328 17.712 109.58 17.866C108.854 18.02 108.084 18.284 107.27 18.658C106.852 18.856 106.478 18.911 106.148 18.823C105.84 18.735 105.598 18.559 105.422 18.295C105.246 18.009 105.158 17.701 105.158 17.371C105.158 17.041 105.246 16.722 105.422 16.414C105.598 16.084 105.895 15.842 106.313 15.688C107.325 15.27 108.293 14.973 109.217 14.797C110.163 14.621 111.021 14.533 111.791 14.533C113.375 14.533 114.673 14.775 115.685 15.259C116.719 15.743 117.489 16.48 117.995 17.47C118.501 18.438 118.754 19.692 118.754 21.232V29.152C118.754 29.834 118.589 30.362 118.259 30.736C117.929 31.088 117.456 31.264 116.84 31.264C116.224 31.264 115.74 31.088 115.388 30.736C115.058 30.362 114.893 29.834 114.893 29.152V27.568H115.157C115.003 28.338 114.695 29.009 114.233 29.581C113.793 30.131 113.232 30.56 112.55 30.868C111.868 31.176 111.087 31.33 110.207 31.33ZM126.109 31.264C125.449 31.264 124.932 31.088 124.558 30.736C124.206 30.362 124.03 29.834 124.03 29.152V17.965H122.512C121.984 17.965 121.577 17.833 121.291 17.569C121.005 17.283 120.862 16.898 120.862 16.414C120.862 15.908 121.005 15.523 121.291 15.259C121.577 14.995 121.984 14.863 122.512 14.863H125.218L124.03 15.952V14.83C124.03 12.564 124.602 10.87 125.746 9.748C126.89 8.604 128.54 7.933 130.696 7.735L131.818 7.636C132.258 7.592 132.61 7.669 132.874 7.867C133.138 8.043 133.314 8.285 133.402 8.593C133.49 8.879 133.501 9.176 133.435 9.484C133.369 9.792 133.226 10.067 133.006 10.309C132.808 10.529 132.544 10.65 132.214 10.672L131.752 10.705C130.498 10.793 129.585 11.112 129.013 11.662C128.441 12.212 128.155 13.048 128.155 14.17V15.391L127.627 14.863H130.96C131.488 14.863 131.895 14.995 132.181 15.259C132.467 15.523 132.61 15.908 132.61 16.414C132.61 16.898 132.467 17.283 132.181 17.569C131.895 17.833 131.488 17.965 130.96 17.965H128.155V29.152C128.155 30.56 127.473 31.264 126.109 31.264ZM141.451 31.33C140.021 31.33 138.822 31.088 137.854 30.604C136.908 30.12 136.204 29.416 135.742 28.492C135.28 27.546 135.049 26.38 135.049 24.994V17.965H133.333C132.805 17.965 132.398 17.833 132.112 17.569C131.826 17.283 131.683 16.898 131.683 16.414C131.683 15.908 131.826 15.523 132.112 15.259C132.398 14.995 132.805 14.863 133.333 14.863H135.049V11.86C135.049 11.178 135.225 10.661 135.577 10.309C135.951 9.957 136.468 9.781 137.128 9.781C137.788 9.781 138.294 9.957 138.646 10.309C138.998 10.661 139.174 11.178 139.174 11.86V14.863H142.672C143.2 14.863 143.607 14.995 143.893 15.259C144.179 15.523 144.322 15.908 144.322 16.414C144.322 16.898 144.179 17.283 143.893 17.569C143.607 17.833 143.2 17.965 142.672 17.965H139.174V24.763C139.174 25.819 139.405 26.611 139.867 27.139C140.329 27.667 141.077 27.931 142.111 27.931C142.485 27.931 142.815 27.898 143.101 27.832C143.387 27.766 143.64 27.722 143.86 27.7C144.124 27.678 144.344 27.766 144.52 27.964C144.696 28.14 144.784 28.514 144.784 29.086C144.784 29.526 144.707 29.922 144.553 30.274C144.421 30.604 144.168 30.835 143.794 30.967C143.508 31.055 143.134 31.132 142.672 31.198C142.21 31.286 141.803 31.33 141.451 31.33ZM149.232 31.264C148.55 31.264 148.022 31.077 147.648 30.703C147.296 30.307 147.12 29.768 147.12 29.086V9.649C147.12 8.945 147.296 8.406 147.648 8.032C148.022 7.658 148.55 7.471 149.232 7.471C149.914 7.471 150.431 7.658 150.783 8.032C151.157 8.406 151.344 8.945 151.344 9.649V17.437H163.323V9.649C163.323 8.945 163.499 8.406 163.851 8.032C164.225 7.658 164.753 7.471 165.435 7.471C166.117 7.471 166.634 7.658 166.986 8.032C167.36 8.406 167.547 8.945 167.547 9.649V29.086C167.547 29.768 167.36 30.307 166.986 30.703C166.634 31.077 166.117 31.264 165.435 31.264C164.753 31.264 164.225 31.077 163.851 30.703C163.499 30.307 163.323 29.768 163.323 29.086V20.968H151.344V29.086C151.344 29.768 151.168 30.307 150.816 30.703C150.464 31.077 149.936 31.264 149.232 31.264ZM178.089 31.33C176.747 31.33 175.636 31.088 174.756 30.604C173.876 30.098 173.216 29.35 172.776 28.36C172.358 27.37 172.149 26.138 172.149 24.664V16.678C172.149 15.974 172.325 15.457 172.677 15.127C173.029 14.775 173.535 14.599 174.195 14.599C174.855 14.599 175.361 14.775 175.713 15.127C176.087 15.457 176.274 15.974 176.274 16.678V24.73C176.274 25.874 176.505 26.721 176.967 27.271C177.429 27.821 178.166 28.096 179.178 28.096C180.278 28.096 181.18 27.722 181.884 26.974C182.588 26.204 182.94 25.192 182.94 23.938V16.678C182.94 15.974 183.116 15.457 183.468 15.127C183.82 14.775 184.326 14.599 184.986 14.599C185.646 14.599 186.152 14.775 186.504 15.127C186.878 15.457 187.065 15.974 187.065 16.678V29.152C187.065 30.56 186.394 31.264 185.052 31.264C184.414 31.264 183.919 31.088 183.567 30.736C183.215 30.362 183.039 29.834 183.039 29.152V26.644L183.501 27.634C183.039 28.822 182.335 29.735 181.389 30.373C180.465 31.011 179.365 31.33 178.089 31.33ZM200.664 31.33C199.3 31.33 198.101 30.989 197.067 30.307C196.055 29.625 195.384 28.712 195.054 27.568L195.417 26.743V29.152C195.417 29.834 195.241 30.362 194.889 30.736C194.537 31.088 194.042 31.264 193.404 31.264C192.744 31.264 192.238 31.088 191.886 30.736C191.534 30.362 191.358 29.834 191.358 29.152V9.55C191.358 8.868 191.534 8.351 191.886 7.999C192.238 7.647 192.744 7.471 193.404 7.471C194.064 7.471 194.57 7.647 194.922 7.999C195.296 8.351 195.483 8.868 195.483 9.55V18.13H195.087C195.439 17.052 196.121 16.183 197.133 15.523C198.145 14.863 199.322 14.533 200.664 14.533C202.094 14.533 203.337 14.874 204.393 15.556C205.449 16.238 206.274 17.206 206.868 18.46C207.462 19.692 207.759 21.177 207.759 22.915C207.759 24.631 207.462 26.127 206.868 27.403C206.274 28.657 205.438 29.625 204.36 30.307C203.304 30.989 202.072 31.33 200.664 31.33ZM199.509 28.195C200.323 28.195 201.038 27.997 201.654 27.601C202.27 27.205 202.743 26.622 203.073 25.852C203.425 25.06 203.601 24.081 203.601 22.915C203.601 21.155 203.227 19.846 202.479 18.988C201.731 18.108 200.741 17.668 199.509 17.668C198.695 17.668 197.98 17.866 197.364 18.262C196.748 18.636 196.264 19.219 195.912 20.011C195.582 20.781 195.417 21.749 195.417 22.915C195.417 24.653 195.791 25.973 196.539 26.875C197.287 27.755 198.277 28.195 199.509 28.195Z" fill="#FF4D4F"/>
</g>
<defs>
<clipPath id="clip0_1_2">
<rect width="216" height="38" fill="white"/>
</clipPath>
</defs>
</svg>
