<svg width="275" height="89" viewBox="0 0 275 89" fill="none" xmlns="http://www.w3.org/2000/svg">
<rect width="275" height="89" fill="white"/>
<path d="M66.1756 55C65.4496 55 64.8886 54.813 64.4926 54.439C64.1186 54.043 63.9316 53.482 63.9316 52.756V33.979C63.9316 33.253 64.1186 32.703 64.4926 32.329C64.8886 31.933 65.4496 31.735 66.1756 31.735H72.5776C76.4716 31.735 79.4746 32.736 81.5866 34.738C83.7206 36.74 84.7876 39.611 84.7876 43.351C84.7876 45.221 84.5126 46.882 83.9626 48.334C83.4346 49.764 82.6426 50.974 81.5866 51.964C80.5526 52.954 79.2766 53.713 77.7586 54.241C76.2626 54.747 74.5356 55 72.5776 55H66.1756ZM68.1556 51.502H72.3136C73.6776 51.502 74.8546 51.337 75.8446 51.007C76.8566 50.655 77.6926 50.149 78.3526 49.489C79.0346 48.807 79.5406 47.96 79.8706 46.948C80.2006 45.914 80.3656 44.715 80.3656 43.351C80.3656 40.623 79.6946 38.588 78.3526 37.246C77.0106 35.904 74.9976 35.233 72.3136 35.233H68.1556V51.502ZM96.6253 55.33C94.7993 55.33 93.2263 54.989 91.9063 54.307C90.5863 53.625 89.5633 52.657 88.8373 51.403C88.1333 50.149 87.7813 48.664 87.7813 46.948C87.7813 45.276 88.1223 43.813 88.8043 42.559C89.5083 41.305 90.4653 40.326 91.6753 39.622C92.9073 38.896 94.3043 38.533 95.8663 38.533C97.0103 38.533 98.0333 38.72 98.9353 39.094C99.8593 39.468 100.64 40.007 101.278 40.711C101.938 41.415 102.433 42.273 102.763 43.285C103.115 44.275 103.291 45.397 103.291 46.651C103.291 47.047 103.148 47.355 102.862 47.575C102.598 47.773 102.213 47.872 101.707 47.872H91.1143V45.496H100.387L99.8593 45.991C99.8593 44.979 99.7053 44.132 99.3973 43.45C99.1113 42.768 98.6823 42.251 98.1103 41.899C97.5603 41.525 96.8673 41.338 96.0313 41.338C95.1073 41.338 94.3153 41.558 93.6553 41.998C93.0173 42.416 92.5223 43.021 92.1703 43.813C91.8403 44.583 91.6753 45.507 91.6753 46.585V46.816C91.6753 48.62 92.0933 49.973 92.9293 50.875C93.7873 51.755 95.0413 52.195 96.6913 52.195C97.2633 52.195 97.9013 52.129 98.6053 51.997C99.3313 51.843 100.013 51.59 100.651 51.238C101.113 50.974 101.52 50.864 101.872 50.908C102.224 50.93 102.499 51.051 102.697 51.271C102.917 51.491 103.049 51.766 103.093 52.096C103.137 52.404 103.071 52.723 102.895 53.053C102.741 53.383 102.466 53.669 102.07 53.911C101.3 54.395 100.409 54.758 99.3973 55C98.4073 55.22 97.4833 55.33 96.6253 55.33ZM112.834 55.264C112.284 55.264 111.8 55.121 111.382 54.835C110.986 54.549 110.656 54.109 110.392 53.515L105.145 41.338C104.947 40.854 104.87 40.403 104.914 39.985C104.98 39.567 105.178 39.237 105.508 38.995C105.86 38.731 106.333 38.599 106.927 38.599C107.433 38.599 107.84 38.72 108.148 38.962C108.456 39.182 108.731 39.611 108.973 40.249L113.428 51.37H112.438L117.025 40.216C117.267 39.6 117.542 39.182 117.85 38.962C118.18 38.72 118.62 38.599 119.17 38.599C119.654 38.599 120.039 38.731 120.325 38.995C120.611 39.237 120.787 39.567 120.853 39.985C120.919 40.381 120.842 40.821 120.622 41.305L115.276 53.515C115.034 54.109 114.704 54.549 114.286 54.835C113.89 55.121 113.406 55.264 112.834 55.264ZM134.923 55.33C132.503 55.33 130.424 54.846 128.686 53.878C126.97 52.888 125.65 51.502 124.726 49.72C123.802 47.916 123.34 45.793 123.34 43.351C123.34 41.525 123.604 39.886 124.132 38.434C124.66 36.96 125.419 35.706 126.409 34.672C127.399 33.616 128.609 32.813 130.039 32.263C131.491 31.691 133.119 31.405 134.923 31.405C136.133 31.405 137.321 31.559 138.487 31.867C139.653 32.175 140.676 32.615 141.556 33.187C142.018 33.473 142.326 33.825 142.48 34.243C142.634 34.639 142.667 35.035 142.579 35.431C142.491 35.805 142.304 36.124 142.018 36.388C141.754 36.652 141.413 36.806 140.995 36.85C140.599 36.872 140.159 36.729 139.675 36.421C138.993 35.981 138.256 35.662 137.464 35.464C136.672 35.266 135.869 35.167 135.055 35.167C133.493 35.167 132.173 35.486 131.095 36.124C130.017 36.762 129.203 37.686 128.653 38.896C128.103 40.106 127.828 41.591 127.828 43.351C127.828 45.089 128.103 46.574 128.653 47.806C129.203 49.038 130.017 49.973 131.095 50.611C132.173 51.249 133.493 51.568 135.055 51.568C135.891 51.568 136.716 51.469 137.53 51.271C138.344 51.051 139.114 50.721 139.84 50.281C140.324 49.995 140.753 49.874 141.127 49.918C141.523 49.94 141.853 50.072 142.117 50.314C142.381 50.556 142.557 50.864 142.645 51.238C142.733 51.59 142.711 51.964 142.579 52.36C142.447 52.734 142.183 53.064 141.787 53.35C140.907 53.988 139.851 54.483 138.619 54.835C137.409 55.165 136.177 55.33 134.923 55.33ZM148.244 55.264C147.562 55.264 147.034 55.088 146.66 54.736C146.308 54.362 146.132 53.834 146.132 53.152V40.678C146.132 39.996 146.308 39.479 146.66 39.127C147.012 38.775 147.507 38.599 148.145 38.599C148.783 38.599 149.278 38.775 149.63 39.127C149.982 39.479 150.158 39.996 150.158 40.678V42.757H149.828C150.136 41.437 150.741 40.436 151.643 39.754C152.545 39.072 153.744 38.665 155.24 38.533C155.702 38.489 156.065 38.61 156.329 38.896C156.615 39.16 156.78 39.578 156.824 40.15C156.868 40.7 156.736 41.151 156.428 41.503C156.142 41.833 155.702 42.031 155.108 42.097L154.382 42.163C153.04 42.295 152.028 42.713 151.346 43.417C150.664 44.099 150.323 45.067 150.323 46.321V53.152C150.323 53.834 150.147 54.362 149.795 54.736C149.443 55.088 148.926 55.264 148.244 55.264ZM164.207 55.33C163.041 55.33 161.996 55.11 161.072 54.67C160.17 54.208 159.455 53.592 158.927 52.822C158.421 52.052 158.168 51.183 158.168 50.215C158.168 49.027 158.476 48.092 159.092 47.41C159.708 46.706 160.709 46.2 162.095 45.892C163.481 45.584 165.34 45.43 167.672 45.43H169.322V47.806H167.705C166.341 47.806 165.252 47.872 164.438 48.004C163.624 48.136 163.041 48.367 162.689 48.697C162.359 49.005 162.194 49.445 162.194 50.017C162.194 50.743 162.447 51.337 162.953 51.799C163.459 52.261 164.163 52.492 165.065 52.492C165.791 52.492 166.429 52.327 166.979 51.997C167.551 51.645 168.002 51.172 168.332 50.578C168.662 49.984 168.827 49.302 168.827 48.532V44.737C168.827 43.637 168.585 42.845 168.101 42.361C167.617 41.877 166.803 41.635 165.659 41.635C165.021 41.635 164.328 41.712 163.58 41.866C162.854 42.02 162.084 42.284 161.27 42.658C160.852 42.856 160.478 42.911 160.148 42.823C159.84 42.735 159.598 42.559 159.422 42.295C159.246 42.009 159.158 41.701 159.158 41.371C159.158 41.041 159.246 40.722 159.422 40.414C159.598 40.084 159.895 39.842 160.313 39.688C161.325 39.27 162.293 38.973 163.217 38.797C164.163 38.621 165.021 38.533 165.791 38.533C167.375 38.533 168.673 38.775 169.685 39.259C170.719 39.743 171.489 40.48 171.995 41.47C172.501 42.438 172.754 43.692 172.754 45.232V53.152C172.754 53.834 172.589 54.362 172.259 54.736C171.929 55.088 171.456 55.264 170.84 55.264C170.224 55.264 169.74 55.088 169.388 54.736C169.058 54.362 168.893 53.834 168.893 53.152V51.568H169.157C169.003 52.338 168.695 53.009 168.233 53.581C167.793 54.131 167.232 54.56 166.55 54.868C165.868 55.176 165.087 55.33 164.207 55.33ZM180.109 55.264C179.449 55.264 178.932 55.088 178.558 54.736C178.206 54.362 178.03 53.834 178.03 53.152V41.965H176.512C175.984 41.965 175.577 41.833 175.291 41.569C175.005 41.283 174.862 40.898 174.862 40.414C174.862 39.908 175.005 39.523 175.291 39.259C175.577 38.995 175.984 38.863 176.512 38.863H179.218L178.03 39.952V38.83C178.03 36.564 178.602 34.87 179.746 33.748C180.89 32.604 182.54 31.933 184.696 31.735L185.818 31.636C186.258 31.592 186.61 31.669 186.874 31.867C187.138 32.043 187.314 32.285 187.402 32.593C187.49 32.879 187.501 33.176 187.435 33.484C187.369 33.792 187.226 34.067 187.006 34.309C186.808 34.529 186.544 34.65 186.214 34.672L185.752 34.705C184.498 34.793 183.585 35.112 183.013 35.662C182.441 36.212 182.155 37.048 182.155 38.17V39.391L181.627 38.863H184.96C185.488 38.863 185.895 38.995 186.181 39.259C186.467 39.523 186.61 39.908 186.61 40.414C186.61 40.898 186.467 41.283 186.181 41.569C185.895 41.833 185.488 41.965 184.96 41.965H182.155V53.152C182.155 54.56 181.473 55.264 180.109 55.264ZM195.451 55.33C194.021 55.33 192.822 55.088 191.854 54.604C190.908 54.12 190.204 53.416 189.742 52.492C189.28 51.546 189.049 50.38 189.049 48.994V41.965H187.333C186.805 41.965 186.398 41.833 186.112 41.569C185.826 41.283 185.683 40.898 185.683 40.414C185.683 39.908 185.826 39.523 186.112 39.259C186.398 38.995 186.805 38.863 187.333 38.863H189.049V35.86C189.049 35.178 189.225 34.661 189.577 34.309C189.951 33.957 190.468 33.781 191.128 33.781C191.788 33.781 192.294 33.957 192.646 34.309C192.998 34.661 193.174 35.178 193.174 35.86V38.863H196.672C197.2 38.863 197.607 38.995 197.893 39.259C198.179 39.523 198.322 39.908 198.322 40.414C198.322 40.898 198.179 41.283 197.893 41.569C197.607 41.833 197.2 41.965 196.672 41.965H193.174V48.763C193.174 49.819 193.405 50.611 193.867 51.139C194.329 51.667 195.077 51.931 196.111 51.931C196.485 51.931 196.815 51.898 197.101 51.832C197.387 51.766 197.64 51.722 197.86 51.7C198.124 51.678 198.344 51.766 198.52 51.964C198.696 52.14 198.784 52.514 198.784 53.086C198.784 53.526 198.707 53.922 198.553 54.274C198.421 54.604 198.168 54.835 197.794 54.967C197.508 55.055 197.134 55.132 196.672 55.198C196.21 55.286 195.803 55.33 195.451 55.33ZM203.232 55.264C202.55 55.264 202.022 55.077 201.648 54.703C201.296 54.307 201.12 53.768 201.12 53.086V33.649C201.12 32.945 201.296 32.406 201.648 32.032C202.022 31.658 202.55 31.471 203.232 31.471C203.914 31.471 204.431 31.658 204.783 32.032C205.157 32.406 205.344 32.945 205.344 33.649V41.437H217.323V33.649C217.323 32.945 217.499 32.406 217.851 32.032C218.225 31.658 218.753 31.471 219.435 31.471C220.117 31.471 220.634 31.658 220.986 32.032C221.36 32.406 221.547 32.945 221.547 33.649V53.086C221.547 53.768 221.36 54.307 220.986 54.703C220.634 55.077 220.117 55.264 219.435 55.264C218.753 55.264 218.225 55.077 217.851 54.703C217.499 54.307 217.323 53.768 217.323 53.086V44.968H205.344V53.086C205.344 53.768 205.168 54.307 204.816 54.703C204.464 55.077 203.936 55.264 203.232 55.264ZM232.089 55.33C230.747 55.33 229.636 55.088 228.756 54.604C227.876 54.098 227.216 53.35 226.776 52.36C226.358 51.37 226.149 50.138 226.149 48.664V40.678C226.149 39.974 226.325 39.457 226.677 39.127C227.029 38.775 227.535 38.599 228.195 38.599C228.855 38.599 229.361 38.775 229.713 39.127C230.087 39.457 230.274 39.974 230.274 40.678V48.73C230.274 49.874 230.505 50.721 230.967 51.271C231.429 51.821 232.166 52.096 233.178 52.096C234.278 52.096 235.18 51.722 235.884 50.974C236.588 50.204 236.94 49.192 236.94 47.938V40.678C236.94 39.974 237.116 39.457 237.468 39.127C237.82 38.775 238.326 38.599 238.986 38.599C239.646 38.599 240.152 38.775 240.504 39.127C240.878 39.457 241.065 39.974 241.065 40.678V53.152C241.065 54.56 240.394 55.264 239.052 55.264C238.414 55.264 237.919 55.088 237.567 54.736C237.215 54.362 237.039 53.834 237.039 53.152V50.644L237.501 51.634C237.039 52.822 236.335 53.735 235.389 54.373C234.465 55.011 233.365 55.33 232.089 55.33ZM254.664 55.33C253.3 55.33 252.101 54.989 251.067 54.307C250.055 53.625 249.384 52.712 249.054 51.568L249.417 50.743V53.152C249.417 53.834 249.241 54.362 248.889 54.736C248.537 55.088 248.042 55.264 247.404 55.264C246.744 55.264 246.238 55.088 245.886 54.736C245.534 54.362 245.358 53.834 245.358 53.152V33.55C245.358 32.868 245.534 32.351 245.886 31.999C246.238 31.647 246.744 31.471 247.404 31.471C248.064 31.471 248.57 31.647 248.922 31.999C249.296 32.351 249.483 32.868 249.483 33.55V42.13H249.087C249.439 41.052 250.121 40.183 251.133 39.523C252.145 38.863 253.322 38.533 254.664 38.533C256.094 38.533 257.337 38.874 258.393 39.556C259.449 40.238 260.274 41.206 260.868 42.46C261.462 43.692 261.759 45.177 261.759 46.915C261.759 48.631 261.462 50.127 260.868 51.403C260.274 52.657 259.438 53.625 258.36 54.307C257.304 54.989 256.072 55.33 254.664 55.33ZM253.509 52.195C254.323 52.195 255.038 51.997 255.654 51.601C256.27 51.205 256.743 50.622 257.073 49.852C257.425 49.06 257.601 48.081 257.601 46.915C257.601 45.155 257.227 43.846 256.479 42.988C255.731 42.108 254.741 41.668 253.509 41.668C252.695 41.668 251.98 41.866 251.364 42.262C250.748 42.636 250.264 43.219 249.912 44.011C249.582 44.781 249.417 45.749 249.417 46.915C249.417 48.653 249.791 49.973 250.539 50.875C251.287 51.755 252.277 52.195 253.509 52.195Z" fill="#333333"/>
<circle cx="35.5" cy="44.5" r="22.5" fill="#FF4D4F"/>
<path d="M29.1719 35.4043L29.5527 36.5176C28.778 36.7585 28.2441 37.1914 27.9512 37.8164C27.6582 38.4349 27.5117 39.1445 27.5117 39.9453V41.9668C27.5117 42.6178 27.3783 43.2103 27.1113 43.7441C26.8509 44.2715 26.4342 44.6914 25.8613 45.0039C25.2949 45.3164 24.5495 45.4727 23.625 45.4727V44.2812C24.3607 44.2812 24.888 44.0729 25.207 43.6562C25.5326 43.2396 25.6953 42.6764 25.6953 41.9668V39.9453C25.6953 39.2617 25.7995 38.6237 26.0078 38.0312C26.2227 37.4323 26.5807 36.9082 27.082 36.459C27.5898 36.0033 28.2865 35.6517 29.1719 35.4043ZM29.5527 53.4512L29.1719 54.5742C28.2865 54.3203 27.5898 53.9688 27.082 53.5195C26.5807 53.0703 26.2227 52.5462 26.0078 51.9473C25.7995 51.3548 25.6953 50.7168 25.6953 50.0332V48.0215C25.6953 47.5462 25.6237 47.1361 25.4805 46.791C25.3372 46.446 25.1126 46.179 24.8066 45.9902C24.5072 45.7949 24.1133 45.6973 23.625 45.6973V44.5059C24.5495 44.5059 25.2949 44.6621 25.8613 44.9746C26.4342 45.2871 26.8509 45.7103 27.1113 46.2441C27.3783 46.7715 27.5117 47.3639 27.5117 48.0215V50.0332C27.5117 50.5671 27.5736 51.0618 27.6973 51.5176C27.8275 51.9733 28.0391 52.3672 28.332 52.6992C28.6315 53.0378 29.0384 53.2884 29.5527 53.4512ZM35.0516 41.4199C35.0516 41.1139 35.146 40.8568 35.3348 40.6484C35.5301 40.4336 35.81 40.3262 36.1746 40.3262C36.5392 40.3262 36.8159 40.4336 37.0047 40.6484C37.2 40.8568 37.2977 41.1139 37.2977 41.4199C37.2977 41.7194 37.2 41.9733 37.0047 42.1816C36.8159 42.39 36.5392 42.4941 36.1746 42.4941C35.81 42.4941 35.5301 42.39 35.3348 42.1816C35.146 41.9733 35.0516 41.7194 35.0516 41.4199ZM37.1121 48.8516V50.3066C37.1121 50.8991 36.9624 51.5241 36.6629 52.1816C36.3634 52.8457 35.9435 53.3991 35.4031 53.8418L34.3777 53.1289C34.5861 52.8424 34.7618 52.5495 34.9051 52.25C35.0483 51.957 35.1557 51.651 35.2273 51.332C35.3055 51.0195 35.3445 50.6875 35.3445 50.3359V48.8516H37.1121ZM42.6109 36.5176L42.9918 35.4043C43.8837 35.6517 44.5803 36.0033 45.0816 36.459C45.5895 36.9082 45.9475 37.4323 46.1559 38.0312C46.3642 38.6237 46.4684 39.2617 46.4684 39.9453V41.9668C46.4684 42.4355 46.54 42.8457 46.6832 43.1973C46.8264 43.5423 47.0478 43.8092 47.3473 43.998C47.6533 44.1868 48.0504 44.2812 48.5387 44.2812V45.3848C47.6207 45.3848 46.8753 45.2383 46.3023 44.9453C45.7294 44.6458 45.3095 44.2389 45.0426 43.7246C44.7822 43.2038 44.652 42.6178 44.652 41.9668V39.9453C44.652 39.4115 44.5901 38.9167 44.4664 38.4609C44.3427 37.9987 44.1311 37.6016 43.8316 37.2695C43.5387 36.931 43.1318 36.6803 42.6109 36.5176ZM42.9918 54.5742L42.6109 53.4512C43.1253 53.2884 43.5289 53.0378 43.8219 52.6992C44.1214 52.3672 44.3329 51.9733 44.4566 51.5176C44.5868 51.0618 44.652 50.5671 44.652 50.0332V48.0215C44.652 47.3639 44.7822 46.778 45.0426 46.2637C45.3095 45.7493 45.7294 45.3457 46.3023 45.0527C46.8753 44.7533 47.6207 44.6035 48.5387 44.6035V45.6973C47.8095 45.6973 47.2822 45.9089 46.9566 46.332C46.6311 46.7487 46.4684 47.3118 46.4684 48.0215V50.0332C46.4684 50.7168 46.3642 51.3548 46.1559 51.9473C45.9475 52.5462 45.5895 53.0703 45.0816 53.5195C44.5803 53.9688 43.8837 54.3203 42.9918 54.5742Z" fill="#FF4D4F"/>
<path d="M29.1719 35.4043L30.118 35.0806L29.8123 34.187L28.9028 34.4412L29.1719 35.4043ZM29.5527 36.5176L29.8496 37.4725L30.8318 37.1671L30.4989 36.1939L29.5527 36.5176ZM27.9512 37.8164L28.8549 38.2445L28.8566 38.2408L27.9512 37.8164ZM27.1113 43.7441L26.2169 43.2969L26.2147 43.3014L27.1113 43.7441ZM25.8613 45.0039L25.3825 44.126L25.3783 44.1283L25.8613 45.0039ZM23.625 45.4727H22.625V46.4727H23.625V45.4727ZM23.625 44.2812V43.2812H22.625V44.2812H23.625ZM25.207 43.6562L24.419 43.0406L24.413 43.0483L25.207 43.6562ZM26.0078 38.0312L25.0665 37.6936L25.0644 37.6995L26.0078 38.0312ZM27.082 36.459L27.7494 37.2037L27.7499 37.2032L27.082 36.459ZM29.5527 53.4512L30.4998 53.7723L30.8276 52.8057L29.8544 52.4978L29.5527 53.4512ZM29.1719 54.5742L28.8962 55.5355L29.8127 55.7983L30.1189 54.8954L29.1719 54.5742ZM27.082 53.5195L26.4147 54.2643L26.4195 54.2685L27.082 53.5195ZM26.0078 51.9473L25.0644 52.279L25.0665 52.2849L26.0078 51.9473ZM25.4805 46.791L24.5569 47.1744L25.4805 46.791ZM24.8066 45.9902L24.2604 46.8278L24.2709 46.8347L24.2815 46.8413L24.8066 45.9902ZM23.625 45.6973H22.625V46.6973H23.625V45.6973ZM23.625 44.5059V43.5059H22.625V44.5059H23.625ZM25.8613 44.9746L25.3782 45.8502L25.3825 45.8525L25.8613 44.9746ZM27.1113 46.2441L26.2126 46.6826L26.2158 46.6892L26.2191 46.6958L27.1113 46.2441ZM27.6973 51.5176L26.7321 51.7796L26.7357 51.7923L27.6973 51.5176ZM28.332 52.6992L27.5822 53.3608L27.583 53.3618L28.332 52.6992ZM28.2257 35.728L28.6066 36.8413L30.4989 36.1939L30.118 35.0806L28.2257 35.728ZM29.2558 35.5627C28.2642 35.871 27.4791 36.4675 27.0457 37.392L28.8566 38.2408C29.0092 37.9153 29.2918 37.6459 29.8496 37.4725L29.2558 35.5627ZM27.0474 37.3883C26.6812 38.1615 26.5117 39.0215 26.5117 39.9453H28.5117C28.5117 39.2676 28.6352 38.7083 28.8549 38.2445L27.0474 37.3883ZM26.5117 39.9453V41.9668H28.5117V39.9453H26.5117ZM26.5117 41.9668C26.5117 42.4769 26.4083 42.9142 26.2169 43.2969L28.0058 44.1914C28.3483 43.5064 28.5117 42.7587 28.5117 41.9668H26.5117ZM26.2147 43.3014C26.0553 43.6241 25.7954 43.9008 25.3825 44.126L26.3402 45.8818C27.0731 45.482 27.6465 44.9189 28.008 44.1869L26.2147 43.3014ZM25.3783 44.1283C25.0097 44.3317 24.4486 44.4727 23.625 44.4727V46.4727C24.6503 46.4727 25.5801 46.3012 26.3444 45.8795L25.3783 44.1283ZM24.625 45.4727V44.2812H22.625V45.4727H24.625ZM23.625 45.2812C24.5393 45.2812 25.4246 45.0171 26.001 44.2642L24.413 43.0483C24.3515 43.1287 24.1821 43.2812 23.625 43.2812V45.2812ZM25.9951 44.2719C26.4984 43.6277 26.6953 42.8235 26.6953 41.9668H24.6953C24.6953 42.5293 24.5667 42.8515 24.419 43.0406L25.9951 44.2719ZM26.6953 41.9668V39.9453H24.6953V41.9668H26.6953ZM26.6953 39.9453C26.6953 39.3647 26.7835 38.8398 26.9512 38.363L25.0644 37.6995C24.8154 38.4076 24.6953 39.1587 24.6953 39.9453H26.6953ZM26.9491 38.3689C27.1046 37.9353 27.3644 37.5487 27.7494 37.2037L26.4147 35.7142C25.7971 36.2677 25.3407 36.9292 25.0665 37.6936L26.9491 38.3689ZM27.7499 37.2032C28.1108 36.8794 28.6546 36.5871 29.441 36.3674L28.9028 34.4412C27.9183 34.7163 27.0689 35.1271 26.4141 35.7147L27.7499 37.2032ZM28.6057 53.13L28.2249 54.2531L30.1189 54.8954L30.4998 53.7723L28.6057 53.13ZM29.4475 53.613C28.6567 53.3862 28.1083 53.0923 27.7446 52.7705L26.4195 54.2685C27.0713 54.8452 27.9162 55.2545 28.8962 55.5355L29.4475 53.613ZM27.7494 52.7748C27.3644 52.4298 27.1046 52.0432 26.9491 51.6096L25.0665 52.2849C25.3407 53.0493 25.7971 53.7108 26.4147 54.2643L27.7494 52.7748ZM26.9512 51.6155C26.7835 51.1387 26.6953 50.6138 26.6953 50.0332H24.6953C24.6953 50.8198 24.8154 51.5709 25.0644 52.279L26.9512 51.6155ZM26.6953 50.0332V48.0215H24.6953V50.0332H26.6953ZM26.6953 48.0215C26.6953 47.449 26.6094 46.9024 26.4041 46.4076L24.5569 47.1744C24.638 47.3698 24.6953 47.6434 24.6953 48.0215H26.6953ZM26.4041 46.4076C26.1837 45.8768 25.8237 45.4427 25.3317 45.1392L24.2815 46.8413C24.4016 46.9154 24.4908 47.0151 24.5569 47.1744L26.4041 46.4076ZM25.3529 45.1526C24.8416 44.8192 24.2385 44.6973 23.625 44.6973V46.6973C23.9881 46.6973 24.1727 46.7707 24.2604 46.8278L25.3529 45.1526ZM24.625 45.6973V44.5059H22.625V45.6973H24.625ZM23.625 45.5059C24.4486 45.5059 25.0097 45.6469 25.3783 45.8502L26.3444 44.099C25.5801 43.6774 24.6503 43.5059 23.625 43.5059V45.5059ZM25.3825 45.8525C25.7921 46.0759 26.0521 46.3536 26.2126 46.6826L28.0101 45.8057C27.6497 45.0669 27.0764 44.4983 26.3402 44.0967L25.3825 45.8525ZM26.2191 46.6958C26.4075 47.068 26.5117 47.503 26.5117 48.0215H28.5117C28.5117 47.2249 28.349 46.475 28.0035 45.7925L26.2191 46.6958ZM26.5117 48.0215V50.0332H28.5117V48.0215H26.5117ZM26.5117 50.0332C26.5117 50.6442 26.5825 51.2281 26.7322 51.7795L28.6623 51.2556C28.5646 50.8956 28.5117 50.4899 28.5117 50.0332H26.5117ZM26.7357 51.7923C26.9039 52.3809 27.1839 52.9095 27.5822 53.3608L29.0819 52.0376C28.8942 51.8249 28.751 51.5657 28.6588 51.2429L26.7357 51.7923ZM27.583 53.3618C28.0239 53.8602 28.5976 54.1978 29.251 54.4046L29.8544 52.4978C29.4792 52.379 29.2391 52.2153 29.081 52.0366L27.583 53.3618ZM35.3348 40.6484L34.5948 39.9758L34.5938 39.9769L35.3348 40.6484ZM37.0047 40.6484L36.2535 41.3086L36.2641 41.3206L36.2752 41.3324L37.0047 40.6484ZM37.0047 42.1816L36.2752 41.4977L36.2694 41.5039L36.2637 41.5101L37.0047 42.1816ZM35.3348 42.1816L34.5938 42.8532L34.5995 42.8594L34.6052 42.8656L35.3348 42.1816ZM37.1121 48.8516H38.1121V47.8516H37.1121V48.8516ZM36.6629 52.1816L35.7528 51.7672L35.7513 51.7705L36.6629 52.1816ZM35.4031 53.8418L34.8323 54.6629L35.4525 55.0941L36.0369 54.6153L35.4031 53.8418ZM34.3777 53.1289L33.569 52.5407L32.9682 53.3669L33.8069 53.95L34.3777 53.1289ZM34.9051 52.25L34.0067 51.8108L34.0029 51.8185L34.9051 52.25ZM35.2273 51.332L34.2572 51.0895L34.2543 51.1012L34.2516 51.113L35.2273 51.332ZM35.3445 48.8516V47.8516H34.3445V48.8516H35.3445ZM36.0516 41.4199C36.0516 41.3708 36.0589 41.3482 36.0611 41.3422C36.0628 41.3375 36.0653 41.3314 36.0758 41.32L34.5938 39.9769C34.223 40.3861 34.0516 40.8895 34.0516 41.4199H36.0516ZM36.0747 41.3211C36.0709 41.3253 36.0652 41.3305 36.0583 41.3351C36.0516 41.3397 36.0478 41.341 36.0495 41.3404C36.0534 41.3389 36.0891 41.3262 36.1746 41.3262V39.3262C35.6054 39.3262 35.026 39.5015 34.5948 39.9758L36.0747 41.3211ZM36.1746 41.3262C36.217 41.3262 36.2469 41.3293 36.2664 41.3326C36.276 41.3342 36.2828 41.3358 36.2872 41.337C36.2916 41.3382 36.2936 41.3389 36.2936 41.3389C36.2937 41.339 36.2932 41.3388 36.2924 41.3384C36.2916 41.338 36.2904 41.3375 36.2889 41.3367C36.2858 41.3351 36.2819 41.3327 36.2774 41.3296C36.2679 41.323 36.2596 41.3154 36.2535 41.3086L37.7559 39.9883C37.3277 39.5011 36.7421 39.3262 36.1746 39.3262V41.3262ZM36.2752 41.3324C36.282 41.3397 36.2852 41.3444 36.2865 41.3465C36.2878 41.3485 36.2887 41.3503 36.2896 41.3526C36.2907 41.3557 36.2977 41.3747 36.2977 41.4199H38.2977C38.2977 40.8798 38.1165 40.3722 37.7342 39.9645L36.2752 41.3324ZM36.2977 41.4199C36.2977 41.4593 36.2916 41.4746 36.2911 41.476C36.2905 41.4775 36.2897 41.4791 36.2882 41.4815C36.2866 41.484 36.2829 41.4894 36.2752 41.4977L37.7342 42.8656C38.1124 42.4622 38.2977 41.9598 38.2977 41.4199H36.2977ZM36.2637 41.5101C36.2709 41.5022 36.2798 41.4944 36.2892 41.4881C36.2985 41.4819 36.3041 41.4798 36.3032 41.4801C36.3004 41.4812 36.2636 41.4941 36.1746 41.4941V43.4941C36.7327 43.4941 37.3149 43.3285 37.7457 42.8532L36.2637 41.5101ZM36.1746 41.4941C36.0859 41.4941 36.0468 41.4813 36.0399 41.4788C36.0369 41.4777 36.04 41.4785 36.0465 41.4828C36.0532 41.4872 36.0595 41.4926 36.0643 41.4977L34.6052 42.8656C35.0387 43.3279 35.6147 43.4941 36.1746 43.4941V41.4941ZM36.0758 41.5101C36.0634 41.4965 36.0609 41.4897 36.0597 41.4865C36.0581 41.4822 36.0516 41.4632 36.0516 41.4199H34.0516C34.0516 41.95 34.2268 42.4482 34.5938 42.8532L36.0758 41.5101ZM36.1121 48.8516V50.3066H38.1121V48.8516H36.1121ZM36.1121 50.3066C36.1121 50.7283 36.0058 51.2118 35.7528 51.7672L37.5729 52.5961C37.919 51.8364 38.1121 51.0699 38.1121 50.3066H36.1121ZM35.7513 51.7705C35.5124 52.3002 35.1853 52.7275 34.7694 53.0683L36.0369 54.6153C36.7017 54.0706 37.2144 53.3912 37.5745 52.5927L35.7513 51.7705ZM35.974 53.0207L34.9486 52.3078L33.8069 53.95L34.8323 54.6629L35.974 53.0207ZM35.1865 53.7171C35.4283 53.3846 35.636 53.0394 35.8072 52.6815L34.0029 51.8185C33.8877 52.0595 33.7439 52.3003 33.569 52.5407L35.1865 53.7171ZM35.8035 52.6892C35.9811 52.3259 36.1144 51.946 36.2031 51.5511L34.2516 51.113C34.1971 51.356 34.1156 51.5881 34.0067 51.8108L35.8035 52.6892ZM36.1975 51.5746C36.2972 51.1759 36.3445 50.7619 36.3445 50.3359H34.3445C34.3445 50.6131 34.3138 50.8632 34.2572 51.0895L36.1975 51.5746ZM36.3445 50.3359V48.8516H34.3445V50.3359H36.3445ZM35.3445 49.8516H37.1121V47.8516H35.3445V49.8516ZM42.6109 36.5176L41.6648 36.1939L41.3323 37.1657L42.3127 37.4721L42.6109 36.5176ZM42.9918 35.4043L43.2591 34.4407L42.3507 34.1887L42.0456 35.0806L42.9918 35.4043ZM45.0816 36.459L44.4089 37.199L44.4191 37.208L45.0816 36.459ZM46.1559 38.0312L45.2114 38.3598L45.2125 38.363L46.1559 38.0312ZM46.6832 43.1973L45.7571 43.5746L45.7596 43.5806L46.6832 43.1973ZM47.3473 43.998L46.8139 44.844L46.8222 44.8491L47.3473 43.998ZM48.5387 44.2812H49.5387V43.2812H48.5387V44.2812ZM48.5387 45.3848V46.3848H49.5387V45.3848H48.5387ZM46.3023 44.9453L45.8391 45.8316L45.8471 45.8357L46.3023 44.9453ZM45.0426 43.7246L44.1482 44.1718L44.1515 44.1786L44.155 44.1853L45.0426 43.7246ZM44.4664 38.4609L43.5004 38.7194L43.5013 38.7229L44.4664 38.4609ZM43.8316 37.2695L43.0755 37.9239L43.0822 37.9317L43.0891 37.9393L43.8316 37.2695ZM42.9918 54.5742L42.0448 54.8954L42.3504 55.7965L43.2656 55.536L42.9918 54.5742ZM42.6109 53.4512L42.3092 52.4978L41.3361 52.8057L41.6639 53.7723L42.6109 53.4512ZM43.8219 52.6992L43.0793 52.0294L43.0724 52.0371L43.0657 52.0448L43.8219 52.6992ZM44.4566 51.5176L43.495 51.2428L43.4916 51.2556L44.4566 51.5176ZM45.0426 46.2637L44.1549 45.803L44.1504 45.8119L45.0426 46.2637ZM46.3023 45.0527L46.7577 45.9431L46.7656 45.939L46.3023 45.0527ZM48.5387 44.6035H49.5387V43.6035H48.5387V44.6035ZM48.5387 45.6973V46.6973H49.5387V45.6973H48.5387ZM46.9566 46.332L47.7447 46.9477L47.7493 46.9417L46.9566 46.332ZM46.1559 51.9473L45.2125 51.6155L45.2114 51.6187L46.1559 51.9473ZM45.0816 53.5195L44.4191 52.7705L44.4143 52.7748L45.0816 53.5195ZM43.5571 36.8413L43.938 35.728L42.0456 35.0806L41.6648 36.1939L43.5571 36.8413ZM42.7245 36.3679C43.518 36.588 44.0579 36.8797 44.409 37.1989L45.7543 35.719C45.1028 35.1268 44.2494 34.7154 43.2591 34.4407L42.7245 36.3679ZM44.4191 37.208C44.8076 37.5517 45.0633 37.934 45.2114 38.3598L47.1004 37.7027C46.8318 36.9306 46.3713 36.2648 45.7442 35.71L44.4191 37.208ZM45.2125 38.363C45.3802 38.8398 45.4684 39.3647 45.4684 39.9453H47.4684C47.4684 39.1587 47.3482 38.4076 47.0992 37.6995L45.2125 38.363ZM45.4684 39.9453V41.9668H47.4684V39.9453H45.4684ZM45.4684 41.9668C45.4684 42.5355 45.5551 43.0787 45.7571 43.5746L47.6093 42.82C47.5249 42.6127 47.4684 42.3356 47.4684 41.9668H45.4684ZM45.7596 43.5806C45.9774 44.1053 46.3298 44.5387 46.814 44.844L47.8806 43.1521C47.7658 43.0798 47.6755 42.9793 47.6068 42.8139L45.7596 43.5806ZM46.8222 44.8491C47.3329 45.1642 47.9291 45.2812 48.5387 45.2812V43.2812C48.1717 43.2812 47.9736 43.2095 47.8724 43.147L46.8222 44.8491ZM47.5387 44.2812V45.3848H49.5387V44.2812H47.5387ZM48.5387 44.3848C47.7159 44.3848 47.1425 44.2518 46.7576 44.055L45.8471 45.8357C46.608 46.2248 47.5255 46.3848 48.5387 46.3848V44.3848ZM46.7656 44.0591C46.3525 43.8432 46.0918 43.5755 45.9302 43.264L44.155 44.1853C44.5272 44.9024 45.1064 45.4485 45.8391 45.8315L46.7656 44.0591ZM45.937 43.2774C45.7539 42.9111 45.652 42.4811 45.652 41.9668H43.652C43.652 42.7546 43.8105 43.4965 44.1482 44.1718L45.937 43.2774ZM45.652 41.9668V39.9453H43.652V41.9668H45.652ZM45.652 39.9453C45.652 39.3343 45.5812 38.7504 45.4315 38.199L43.5013 38.7229C43.5991 39.083 43.652 39.4886 43.652 39.9453H45.652ZM45.4324 38.2024C45.2708 37.5983 44.987 37.0574 44.5742 36.5998L43.0891 37.9393C43.2752 38.1457 43.4147 38.3991 43.5004 38.7194L45.4324 38.2024ZM44.5878 36.6152C44.1489 36.108 43.5687 35.7692 42.9092 35.5631L42.3127 37.4721C42.6949 37.5915 42.9284 37.754 43.0755 37.9239L44.5878 36.6152ZM43.9388 54.2531L43.558 53.13L41.6639 53.7723L42.0448 54.8954L43.9388 54.2531ZM42.9126 54.4046C43.5669 54.1975 44.1414 53.8581 44.578 53.3536L43.0657 52.0448C42.9164 52.2174 42.6836 52.3793 42.3092 52.4978L42.9126 54.4046ZM44.5644 53.369C44.975 52.9138 45.2593 52.378 45.4217 51.7795L43.4916 51.2556C43.4066 51.5686 43.2677 51.8205 43.0793 52.0294L44.5644 53.369ZM45.4182 51.7923C45.5769 51.2368 45.652 50.6484 45.652 50.0332H43.652C43.652 50.4857 43.5968 50.8869 43.4951 51.2429L45.4182 51.7923ZM45.652 50.0332V48.0215H43.652V50.0332H45.652ZM45.652 48.0215C45.652 47.4987 45.7546 47.0711 45.9347 46.7154L44.1504 45.8119C43.8097 46.4848 43.652 47.2292 43.652 48.0215H45.652ZM45.9302 46.7243C46.0907 46.415 46.3486 46.1522 46.7576 45.9431L45.8471 44.1624C45.1103 44.5392 44.5283 45.0837 44.155 45.803L45.9302 46.7243ZM46.7656 45.939C47.1482 45.739 47.7185 45.6035 48.5387 45.6035V43.6035C47.5229 43.6035 46.6023 43.7676 45.8391 44.1665L46.7656 45.939ZM47.5387 44.6035V45.6973H49.5387V44.6035H47.5387ZM48.5387 44.6973C47.6206 44.6973 46.7423 44.9705 46.164 45.7223L47.7493 46.9417C47.822 46.8472 47.9985 46.6973 48.5387 46.6973V44.6973ZM46.1686 45.7164C45.6653 46.3606 45.4684 47.1647 45.4684 48.0215H47.4684C47.4684 47.459 47.5969 47.1368 47.7447 46.9477L46.1686 45.7164ZM45.4684 48.0215V50.0332H47.4684V48.0215H45.4684ZM45.4684 50.0332C45.4684 50.6138 45.3802 51.1387 45.2125 51.6155L47.0992 52.279C47.3482 51.5709 47.4684 50.8198 47.4684 50.0332H45.4684ZM45.2114 51.6187C45.0633 52.0445 44.8076 52.4269 44.4191 52.7705L45.7442 54.2685C46.3713 53.7138 46.8318 53.048 47.1004 52.2758L45.2114 51.6187ZM44.4143 52.7748C44.0603 53.092 43.516 53.3853 42.718 53.6124L43.2656 55.536C44.2515 55.2554 45.1003 54.8455 45.749 54.2643L44.4143 52.7748Z" fill="white"/>
</svg>
